<?xml version="1.0" encoding="UTF-8"?>
<!DOCTYPE svg PUBLIC "-//W3C//DTD SVG 1.1//EN" "http://www.w3.org/Graphics/SVG/1.1/DTD/svg11.dtd">
<svg xmlns="http://www.w3.org/2000/svg" version="1.1" width="250px" height="250px" style="shape-rendering:geometricPrecision; text-rendering:geometricPrecision; image-rendering:optimizeQuality; fill-rule:evenodd; clip-rule:evenodd" xmlns:xlink="http://www.w3.org/1999/xlink">
<g><path style="opacity:1" fill="#f7cf16" d="M 109.5,3.5 C 162.752,-0.292683 203.252,20.374 231,65.5C 247.993,99.6091 249.993,134.609 237,170.5C 211.763,223.679 169.596,248.512 110.5,245C 59.0681,237.237 24.9014,208.737 8,159.5C -5.76597,99.5813 12.734,52.7479 63.5,19C 78.0445,11.0967 93.3779,5.92998 109.5,3.5 Z"/></g>
<g><path style="opacity:1" fill="#0e5cb9" d="M 109.5,10.5 C 169.251,7.60025 210.418,33.6002 233,88.5C 246.108,138.161 233.608,179.994 195.5,214C 155.19,242.826 112.857,246.16 68.5,224C 26.4064,197.647 7.23975,159.481 11,109.5C 22.0132,54.6538 54.8465,21.6538 109.5,10.5 Z"/></g>
<g><path style="opacity:1" fill="#e7c82a" d="M 122.5,13.5 C 128.488,13.664 129.821,16.164 126.5,21C 120.413,21.2054 119.079,18.7054 122.5,13.5 Z"/></g>
<g><path style="opacity:1" fill="#e5c72b" d="M 111.5,14.5 C 118.004,14.1377 119.671,16.6377 116.5,22C 110.785,22.401 109.119,19.901 111.5,14.5 Z"/></g>
<g><path style="opacity:1" fill="#e8c829" d="M 132.5,14.5 C 138.704,14.3137 140.037,16.8137 136.5,22C 132.945,23.1225 130.945,21.7892 130.5,18C 130.978,16.6974 131.645,15.5307 132.5,14.5 Z"/></g>
<g><path style="opacity:1" fill="#e9c926" d="M 102.5,15.5 C 107.262,16.0925 108.596,18.5925 106.5,23C 99.193,23.5405 97.8596,21.0405 102.5,15.5 Z"/></g>
<g><path style="opacity:1" fill="#edcb22" d="M 143.5,15.5 C 148.805,16.2414 150.139,18.7414 147.5,23C 141.202,23.4954 139.868,20.9954 143.5,15.5 Z"/></g>
<g><path style="opacity:1" fill="#e7c828" d="M 91.5,18.5 C 97.3619,18.6621 98.6952,21.1621 95.5,26C 89.4034,26.1475 88.0701,23.6475 91.5,18.5 Z"/></g>
<g><path style="opacity:1" fill="#eaca22" d="M 153.5,18.5 C 159.488,18.664 160.821,21.164 157.5,26C 151.403,26.1475 150.07,23.6475 153.5,18.5 Z"/></g>
<g><path style="opacity:1" fill="#e9c927" d="M 82.5,21.5 C 87.2624,22.0925 88.5957,24.5925 86.5,29C 79.193,29.5405 77.8596,27.0405 82.5,21.5 Z"/></g>
<g><path style="opacity:1" fill="#f0cd1d" d="M 162.5,22.5 C 167.006,21.5272 169.172,23.1939 169,27.5C 162.645,31.2008 160.478,29.5342 162.5,22.5 Z"/></g>
<g><path style="opacity:1" fill="#eac924" d="M 72.5,26.5 C 78.4877,26.664 79.821,29.164 76.5,34C 70.4034,34.1475 69.0701,31.6475 72.5,26.5 Z"/></g>
<g><path style="opacity:1" fill="#e9c924" d="M 172.5,26.5 C 178.488,26.664 179.821,29.164 176.5,34C 170.403,34.1475 169.07,31.6475 172.5,26.5 Z"/></g>
<g><path style="opacity:1" fill="#e9c924" d="M 63.5,31.5 C 69.4877,31.664 70.821,34.164 67.5,39C 61.4034,39.1475 60.0701,36.6475 63.5,31.5 Z"/></g>
<g><path style="opacity:1" fill="#e4c62e" d="M 181.5,31.5 C 186.984,31.4809 188.65,33.9809 186.5,39C 179.745,39.7558 178.078,37.2558 181.5,31.5 Z"/></g>
<g><path style="opacity:1" fill="#f4cf19" d="M 141.5,130.5 C 145.634,131.485 149.968,131.818 154.5,131.5C 154.5,118.833 154.5,106.167 154.5,93.5C 155.362,78.2639 162.029,66.4306 174.5,58C 178.021,56.3262 181.687,55.1596 185.5,54.5C 186.499,93.3298 186.832,132.33 186.5,171.5C 174.162,171.333 161.829,171.5 149.5,172C 141.294,187.58 132.961,203.08 124.5,218.5C 115.977,203.455 107.977,188.121 100.5,172.5C 88.3446,171.505 76.0113,171.171 63.5,171.5C 63.1681,132.33 63.5015,93.3298 64.5,54.5C 77.8277,57.6569 86.9944,65.6569 92,78.5C 93.9652,84.3605 95.2985,90.3605 96,96.5C 96.4999,107.828 96.6665,119.162 96.5,130.5C 100.5,130.5 104.5,130.5 108.5,130.5C 110,110.168 111.167,89.8347 112,69.5C 105.975,63.3342 103.975,56.0009 106,47.5C 114.481,33.1803 125.648,30.6803 139.5,40C 147.791,50.2931 147.291,60.1264 138,69.5C 138.44,90.013 139.606,110.346 141.5,130.5 Z"/></g>
<g><path style="opacity:1" fill="#f0cd1e" d="M 55.5,37.5 C 60.2624,38.0925 61.5957,40.5925 59.5,45C 53.2016,45.4954 51.8682,42.9954 55.5,37.5 Z"/></g>
<g><path style="opacity:1" fill="#e9c928" d="M 189.5,38.5 C 196.564,38.3516 197.897,40.8516 193.5,46C 188.632,45.7108 187.299,43.2108 189.5,38.5 Z"/></g>
<g><path style="opacity:1" fill="#195eb6" d="M 121.5,40.5 C 134.865,41.0147 140.031,47.6813 137,60.5C 132.874,66.9702 127.041,69.1369 119.5,67C 112.764,63.024 110.264,57.1906 112,49.5C 114.406,45.5915 117.572,42.5915 121.5,40.5 Z"/></g>
<g><path style="opacity:1" fill="#e9c928" d="M 47.5,44.5 C 53.0204,45.0435 54.3538,47.5435 51.5,52C 45.2016,52.4954 43.8682,49.9954 47.5,44.5 Z"/></g>
<g><path style="opacity:1" fill="#eaca26" d="M 197.5,45.5 C 203.704,45.3137 205.037,47.8137 201.5,53C 195.95,52.6348 194.617,50.1348 197.5,45.5 Z"/></g>
<g><path style="opacity:1" fill="#f0cd1f" d="M 121.5,48.5 C 130.16,47.6866 132.827,51.1866 129.5,59C 121.735,61.575 118.568,58.7416 120,50.5C 120.717,49.9558 121.217,49.2891 121.5,48.5 Z"/></g>
<g><path style="opacity:1" fill="#e5c72d" d="M 40.5,52.5 C 46.4877,52.664 47.821,55.164 44.5,60C 38.2016,60.4954 36.8682,57.9954 40.5,52.5 Z"/></g>
<g><path style="opacity:1" fill="#eac927" d="M 205.5,52.5 C 210.262,53.0925 211.596,55.5925 209.5,60C 202.193,60.5405 200.86,58.0405 205.5,52.5 Z"/></g>
<g><path style="opacity:1" fill="#9ba256" d="M 64.5,54.5 C 63.5015,93.3298 63.1681,132.33 63.5,171.5C 76.0113,171.171 88.3446,171.505 100.5,172.5C 87.8333,172.5 75.1667,172.5 62.5,172.5C 62.1668,132.828 62.5001,93.1611 63.5,53.5C 64.1067,53.6236 64.44,53.9569 64.5,54.5 Z"/></g>
<g><path style="opacity:1" fill="#78916d" d="M 185.5,54.5 C 185.56,53.9569 185.893,53.6236 186.5,53.5C 187.831,92.9979 187.831,132.331 186.5,171.5C 186.832,132.33 186.499,93.3298 185.5,54.5 Z"/></g>
<g><path style="opacity:1" fill="#f0cd1e" d="M 33.5,61.5 C 39.1581,60.6794 40.8248,62.846 38.5,68C 32.2435,68.9338 30.5769,66.7672 33.5,61.5 Z"/></g>
<g><path style="opacity:1" fill="#b9b03e" d="M 179.5,63.5 C 179.56,62.9569 179.893,62.6236 180.5,62.5C 181.83,96.9976 181.83,131.331 180.5,165.5C 180.832,131.329 180.498,97.3292 179.5,63.5 Z"/></g>
<g><path style="opacity:1" fill="#e8c928" d="M 210.5,61.5 C 216.729,61.0267 218.395,63.36 215.5,68.5C 209.805,69.4458 208.138,67.1125 210.5,61.5 Z"/></g>
<g><path style="opacity:1" fill="#8b9a5f" d="M 70.5,63.5 C 69.5017,97.3292 69.1683,131.329 69.5,165.5C 68.1698,131.331 68.1698,96.9976 69.5,62.5C 70.1067,62.6236 70.44,62.9569 70.5,63.5 Z"/></g>
<g><path style="opacity:1" fill="#0d5cb9" d="M 70.5,63.5 C 79.8867,68.7459 85.72,76.7459 88,87.5C 88.7189,91.1454 89.2189,94.8121 89.5,98.5C 89.5,111.5 89.5,124.5 89.5,137.5C 97.8333,137.5 106.167,137.5 114.5,137.5C 114.5,136.5 114.5,135.5 114.5,134.5C 116.185,114.174 118.019,93.8406 120,73.5C 123.135,74.7994 126.301,74.7994 129.5,73.5C 130.281,74.7287 130.781,76.062 131,77.5C 132.378,97.5204 133.878,117.52 135.5,137.5C 143.5,137.5 151.5,137.5 159.5,137.5C 159.333,123.829 159.5,110.163 160,96.5C 160.955,84.4248 165.789,74.2582 174.5,66C 176.078,64.9055 177.745,64.0722 179.5,63.5C 180.498,97.3292 180.832,131.329 180.5,165.5C 168.482,165.168 156.482,165.501 144.5,166.5C 138.343,179.483 131.676,192.149 124.5,204.5C 117.706,191.745 111.039,178.912 104.5,166C 92.8381,165.5 81.1714,165.333 69.5,165.5C 69.1683,131.329 69.5017,97.3292 70.5,63.5 Z"/></g>
<g><path style="opacity:1" fill="#e9c927" d="M 27.5,70.5 C 33.1132,69.079 35.2799,71.079 34,76.5C 27.423,79.0878 25.2563,77.0878 27.5,70.5 Z"/></g>
<g><path style="opacity:1" fill="#e9c925" d="M 216.5,70.5 C 222.488,70.664 223.821,73.164 220.5,78C 214.403,78.1475 213.07,75.6475 216.5,70.5 Z"/></g>
<g><path style="opacity:1" fill="#eac926" d="M 23.5,79.5 C 29.2354,78.8213 30.902,81.1546 28.5,86.5C 26.6293,87.767 24.7959,87.767 23,86.5C 22.2967,84.0709 22.4634,81.7375 23.5,79.5 Z"/></g>
<g><path style="opacity:1" fill="#e8c928" d="M 221.5,79.5 C 226.262,80.0925 227.596,82.5925 225.5,87C 218.17,87.4855 216.837,84.9855 221.5,79.5 Z"/></g>
<g><path style="opacity:1" fill="#eac923" d="M 20.5,89.5 C 26.4877,89.664 27.821,92.164 24.5,97C 18.4034,97.1475 17.0701,94.6475 20.5,89.5 Z"/></g>
<g><path style="opacity:1" fill="#eac922" d="M 224.5,89.5 C 230.488,89.664 231.821,92.164 228.5,97C 222.403,97.1475 221.07,94.6475 224.5,89.5 Z"/></g>
<g><path style="opacity:1" fill="#f1cd1d" d="M 75.5,97.5 C 81.3365,96.5179 84.1698,98.8513 84,104.5C 80.952,108.01 77.6187,108.343 74,105.5C 73.1093,102.502 73.6093,99.8357 75.5,97.5 Z"/></g>
<g><path style="opacity:1" fill="#f6d011" d="M 168.5,97.5 C 176.486,96.998 178.486,100.165 174.5,107C 166.424,107.805 164.424,104.638 168.5,97.5 Z"/></g>
<g><path style="opacity:1" fill="#e8c828" d="M 17.5,99.5 C 23.3619,99.6621 24.6952,102.162 21.5,107C 17.9447,108.123 15.9447,106.789 15.5,103C 15.9783,101.697 16.645,100.531 17.5,99.5 Z"/></g>
<g><path style="opacity:1" fill="#eac927" d="M 227.5,99.5 C 232.262,100.092 233.596,102.592 231.5,107C 224.193,107.541 222.86,105.041 227.5,99.5 Z"/></g>
<g><path style="opacity:1" fill="#a2a550" d="M 89.5,98.5 C 90.4954,110.989 90.8287,123.656 90.5,136.5C 98.7721,137.085 106.772,136.418 114.5,134.5C 114.5,135.5 114.5,136.5 114.5,137.5C 106.167,137.5 97.8333,137.5 89.5,137.5C 89.5,124.5 89.5,111.5 89.5,98.5 Z"/></g>
<g><path style="opacity:1" fill="#c4b53d" d="M 154.5,93.5 C 154.5,106.167 154.5,118.833 154.5,131.5C 149.968,131.818 145.634,131.485 141.5,130.5C 145.5,130.5 149.5,130.5 153.5,130.5C 153.171,117.989 153.505,105.655 154.5,93.5 Z"/></g>
<g><path style="opacity:1" fill="#e8c829" d="M 16.5,109.5 C 22.4877,109.664 23.821,112.164 20.5,117C 14.4128,117.205 13.0795,114.705 16.5,109.5 Z"/></g>
<g><path style="opacity:1" fill="#e7c72b" d="M 227.5,110.5 C 234.004,110.138 235.671,112.638 232.5,118C 226.788,118.433 225.122,115.933 227.5,110.5 Z"/></g>
<g><path style="opacity:1" fill="#e9c926" d="M 15.5,120.5 C 21.704,120.314 23.0374,122.814 19.5,128C 13.8121,127.79 12.4788,125.29 15.5,120.5 Z"/></g>
<g><path style="opacity:1" fill="#ecca23" d="M 229.5,120.5 C 230.93,120.421 232.264,120.754 233.5,121.5C 235.89,127.608 234.056,129.608 228,127.5C 227.185,124.802 227.685,122.468 229.5,120.5 Z"/></g>
<g><path style="opacity:1" fill="#e7c828" d="M 16.5,130.5 C 22.4877,130.664 23.821,133.164 20.5,138C 14.4128,138.205 13.0795,135.705 16.5,130.5 Z"/></g>
<g><path style="opacity:1" fill="#ebca25" d="M 227.5,131.5 C 233.113,130.079 235.28,132.079 234,137.5C 227.828,139.631 225.661,137.631 227.5,131.5 Z"/></g>
<g><path style="opacity:1" fill="#eaca26" d="M 17.5,141.5 C 23.704,141.314 25.0374,143.814 21.5,149C 15.9505,148.635 14.6172,146.135 17.5,141.5 Z"/></g>
<g><path style="opacity:1" fill="#e6c72b" d="M 226.5,141.5 C 232.704,141.314 234.037,143.814 230.5,149C 226.945,150.123 224.945,148.789 224.5,145C 224.978,143.697 225.645,142.531 226.5,141.5 Z"/></g>
<g><path style="opacity:1" fill="#f1cd1d" d="M 77.5,144.5 C 85.6648,145.655 87.3314,149.489 82.5,156C 75.1444,157.817 72.311,154.983 74,147.5C 75.1451,146.364 76.3117,145.364 77.5,144.5 Z"/></g>
<g><path style="opacity:1" fill="#eecc22" d="M 168.5,144.5 C 176.571,145.093 178.571,148.926 174.5,156C 163.874,156.553 161.874,152.72 168.5,144.5 Z"/></g>
<g><path style="opacity:1" fill="#e5c72b" d="M 19.5,151.5 C 26.004,151.138 27.6707,153.638 24.5,159C 18.7853,159.401 17.1187,156.901 19.5,151.5 Z"/></g>
<g><path style="opacity:1" fill="#eaca22" d="M 224.5,151.5 C 230.488,151.664 231.821,154.164 228.5,159C 222.403,159.147 221.07,156.647 224.5,151.5 Z"/></g>
<g><path style="opacity:1" fill="#e9c928" d="M 23.5,161.5 C 29.704,161.314 31.0374,163.814 27.5,169C 21.9505,168.635 20.6172,166.135 23.5,161.5 Z"/></g>
<g><path style="opacity:1" fill="#efcc21" d="M 121.5,162.5 C 128.327,161.174 131.494,163.84 131,170.5C 127.645,175.31 123.979,175.644 120,171.5C 119.068,168.177 119.568,165.177 121.5,162.5 Z"/></g>
<g><path style="opacity:1" fill="#e7c82a" d="M 220.5,161.5 C 226.362,161.662 227.695,164.162 224.5,169C 218.403,169.147 217.07,166.647 220.5,161.5 Z"/></g>
<g><path style="opacity:1" fill="#eac922" d="M 28.5,170.5 C 34.4877,170.664 35.821,173.164 32.5,178C 26.4034,178.147 25.0701,175.647 28.5,170.5 Z"/></g>
<g><path style="opacity:1" fill="#e6c72c" d="M 216.5,170.5 C 222.488,170.664 223.821,173.164 220.5,178C 214.202,178.495 212.868,175.995 216.5,170.5 Z"/></g>
<g><path style="opacity:1" fill="#e9c925" d="M 33.5,179.5 C 39.4877,179.664 40.821,182.164 37.5,187C 31.4034,187.147 30.0701,184.647 33.5,179.5 Z"/></g>
<g><path style="opacity:1" fill="#e9c927" d="M 211.5,179.5 C 216.262,180.092 217.596,182.592 215.5,187C 208.193,187.541 206.86,185.041 211.5,179.5 Z"/></g>
<g><path style="opacity:1" fill="#f6d00f" d="M 39.5,188.5 C 45.1581,187.679 46.8248,189.846 44.5,195C 38.741,196.139 37.0744,193.972 39.5,188.5 Z"/></g>
<g><path style="opacity:1" fill="#e5c72c" d="M 204.5,188.5 C 210.704,188.314 212.037,190.814 208.5,196C 202.403,196.147 201.07,193.647 204.5,188.5 Z"/></g>
<g><path style="opacity:1" fill="#f0cd1c" d="M 47.5,195.5 C 52.2624,196.092 53.5957,198.592 51.5,203C 45.2016,203.495 43.8682,200.995 47.5,195.5 Z"/></g>
<g><path style="opacity:1" fill="#ebca25" d="M 196.5,196.5 C 202.113,195.079 204.28,197.079 203,202.5C 196.828,204.631 194.661,202.631 196.5,196.5 Z"/></g>
<g><path style="opacity:1" fill="#e5c72d" d="M 54.5,202.5 C 59.9836,202.481 61.6503,204.981 59.5,210C 52.745,210.756 51.0783,208.256 54.5,202.5 Z"/></g>
<g><path style="opacity:1" fill="#f0cd1e" d="M 189.5,203.5 C 195.158,202.679 196.825,204.846 194.5,210C 188.244,210.934 186.577,208.767 189.5,203.5 Z"/></g>
<g><path style="opacity:1" fill="#f0cd1d" d="M 62.5,209.5 C 67.0057,208.527 69.1724,210.194 69,214.5C 62.6446,218.201 60.4779,216.534 62.5,209.5 Z"/></g>
<g><path style="opacity:1" fill="#e5c72c" d="M 180.5,209.5 C 187.004,209.138 188.671,211.638 185.5,217C 179.785,217.401 178.119,214.901 180.5,209.5 Z"/></g>
<g><path style="opacity:1" fill="#e6c72c" d="M 71.5,214.5 C 78.004,214.138 79.6707,216.638 76.5,222C 70.7853,222.401 69.1187,219.901 71.5,214.5 Z"/></g>
<g><path style="opacity:1" fill="#eac922" d="M 172.5,214.5 C 178.488,214.664 179.821,217.164 176.5,222C 170.403,222.147 169.07,219.647 172.5,214.5 Z"/></g>
<g><path style="opacity:1" fill="#e4c62e" d="M 81.5,218.5 C 86.9836,218.481 88.6503,220.981 86.5,226C 79.745,226.756 78.0783,224.256 81.5,218.5 Z"/></g>
<g><path style="opacity:1" fill="#efcc20" d="M 162.5,219.5 C 168.158,218.679 169.825,220.846 167.5,226C 161.244,226.934 159.577,224.767 162.5,219.5 Z"/></g>
<g><path style="opacity:1" fill="#eaca21" d="M 91.5,222.5 C 97.4877,222.664 98.821,225.164 95.5,230C 89.4034,230.147 88.0701,227.647 91.5,222.5 Z"/></g>
<g><path style="opacity:1" fill="#e3c530" d="M 152.5,222.5 C 159.004,222.138 160.671,224.638 157.5,230C 151.593,230.746 149.927,228.246 152.5,222.5 Z"/></g>
<g><path style="opacity:1" fill="#e6c72b" d="M 102.5,224.5 C 107.262,225.092 108.596,227.592 106.5,232C 101.502,233.33 99.3357,231.496 100,226.5C 100.995,225.934 101.828,225.267 102.5,224.5 Z"/></g>
<g><path style="opacity:1" fill="#efcc1f" d="M 142.5,225.5 C 148.158,224.679 149.825,226.846 147.5,232C 141.244,232.934 139.577,230.767 142.5,225.5 Z"/></g>
<g><path style="opacity:1" fill="#ebca25" d="M 111.5,226.5 C 117.235,225.821 118.902,228.155 116.5,233.5C 114.629,234.767 112.796,234.767 111,233.5C 110.297,231.071 110.463,228.738 111.5,226.5 Z"/></g>
<g><path style="opacity:1" fill="#e9c929" d="M 122.5,226.5 C 127.365,226.684 129.032,229.018 127.5,233.5C 120.369,235.27 118.703,232.936 122.5,226.5 Z"/></g>
<g><path style="opacity:1" fill="#eaca21" d="M 132.5,226.5 C 138.488,226.664 139.821,229.164 136.5,234C 130.403,234.147 129.07,231.647 132.5,226.5 Z"/></g>
</svg>
